<svg xmlns="http://www.w3.org/2000/svg" width="1020" height="320" viewBox="0 0 1020 320">
  <style>
    .box{fill:#ffffff;stroke:#8b5cf6;stroke-width:2;rx:8;ry:8;}
    .title{fill:#1e1b4b;font-family:Arial,sans-serif;font-size:13px;font-weight:700;}
    .arrow{stroke:#64748b;stroke-width:2;fill:none;marker-end:url(#arrowhead);}
  </style>
  <defs>
    <marker id="arrowhead" markerWidth="10" markerHeight="7" refX="9" refY="3.5" orient="auto">
      <polygon points="0 0, 10 3.5, 0 7" fill="#64748b" />
    </marker>
  </defs>

  <rect class="box" x="30" y="40" width="150" height="60" />
  <text class="title" x="50" y="75">User Question</text>

  <rect class="box" x="210" y="40" width="180" height="60" />
  <text class="title" x="230" y="75">Plan Sub‑Questions</text>

  <rect class="box" x="420" y="40" width="190" height="60" />
  <text class="title" x="440" y="75">Local Hybrid Search</text>

  <rect class="box" x="640" y="40" width="160" height="60" />
  <text class="title" x="655" y="75">Coverage Check</text>

  <rect class="box" x="640" y="130" width="160" height="60" />
  <text class="title" x="675" y="165">Web Search</text>

  <rect class="box" x="210" y="130" width="180" height="60" />
  <text class="title" x="230" y="165">Missing Concepts</text>

  <rect class="box" x="420" y="130" width="190" height="60" />
  <text class="title" x="445" y="165">Grouped Context</text>

  <rect class="box" x="420" y="230" width="190" height="60" />
  <text class="title" x="445" y="265">LLM Synthesis</text>

  <rect class="box" x="650" y="230" width="220" height="60" />
  <text class="title" x="668" y="265">Answer + Confidence</text>

  <path class="arrow" d="M180 70 L210 70" />
  <path class="arrow" d="M390 70 L420 70" />
  <path class="arrow" d="M610 70 L640 70" />
  <path class="arrow" d="M720 100 L720 130" />
  <path class="arrow" d="M640 70 L390 160" />
  <path class="arrow" d="M390 160 L420 160" />
  <path class="arrow" d="M515 190 L515 230" />
  <path class="arrow" d="M610 260 L650 260" />
</svg>