<svg xmlns="http://www.w3.org/2000/svg" width="980" height="260" viewBox="0 0 980 260">
  <style>
    .box{fill:#ffffff;stroke:#10b981;stroke-width:2;rx:8;ry:8;}
    .title{fill:#064e3b;font-family:Arial,sans-serif;font-size:13px;font-weight:700;}
    .arrow{stroke:#64748b;stroke-width:2;fill:none;marker-end:url(#arrowhead);}
  </style>
  <defs>
    <marker id="arrowhead" markerWidth="10" markerHeight="7" refX="9" refY="3.5" orient="auto">
      <polygon points="0 0, 10 3.5, 0 7" fill="#64748b" />
    </marker>
  </defs>

  <rect class="box" x="30" y="90" width="160" height="60" />
  <text class="title" x="55" y="120">SpacesAI UI</text>

  <rect class="box" x="220" y="90" width="150" height="60" />
  <text class="title" x="250" y="120">FastAPI</text>

  <rect class="box" x="410" y="20" width="170" height="60" />
  <text class="title" x="435" y="50">OCI Postgres</text>

  <rect class="box" x="410" y="100" width="170" height="60" />
  <text class="title" x="430" y="130">OCI OpenSearch</text>

  <rect class="box" x="410" y="180" width="170" height="60" />
  <text class="title" x="450" y="210">OCI Valkey</text>

  <rect class="box" x="620" y="70" width="170" height="60" />
  <text class="title" x="635" y="100">OCI Object Store</text>

  <rect class="box" x="820" y="90" width="130" height="60" />
  <text class="title" x="835" y="120">LLM Providers</text>

  <path class="arrow" d="M190 120 L220 120" />
  <path class="arrow" d="M370 120 L410 50" />
  <path class="arrow" d="M370 120 L410 130" />
  <path class="arrow" d="M370 120 L410 210" />
  <path class="arrow" d="M580 100 L620 100" />
  <path class="arrow" d="M790 120 L820 120" />
</svg>